<svg width="185" height="40" viewBox="0 0 185 40" fill="none" xmlns="http://www.w3.org/2000/svg">
<rect width="185" height="40" fill="#E73634"/>
<path fill-rule="evenodd" clip-rule="evenodd" d="M50.403 13.633C49.5714 12.7959 48.5819 12.1321 47.4919 11.6801C46.4019 11.2282 45.233 10.997 44.053 11C39.105 11 35.077 15.027 35.075 19.977C35.075 21.559 35.488 23.103 36.273 24.465L35 29.116L39.759 27.867C41.0754 28.5836 42.5502 28.9593 44.049 28.96H44.053C49 28.96 53.028 24.933 53.03 19.983C53.0334 18.8035 52.803 17.635 52.3521 16.5451C51.9012 15.4551 51.2387 14.4654 50.403 13.633ZM44.053 27.445H44.05C42.7135 27.4451 41.4016 27.0856 40.252 26.404L39.98 26.242L37.156 26.983L37.909 24.23L37.732 23.948C36.9848 22.7584 36.5892 21.3818 36.591 19.977C36.593 15.863 39.94 12.516 44.056 12.516C45.0363 12.5138 46.0072 12.7061 46.9127 13.0817C47.8181 13.4572 48.6401 14.0086 49.331 14.704C50.0256 15.396 50.5762 16.2189 50.9509 17.125C51.3256 18.0311 51.517 19.0025 51.514 19.983C51.512 24.097 48.165 27.445 44.053 27.445ZM48.146 21.856C47.921 21.743 46.819 21.201 46.613 21.126C46.408 21.051 46.259 21.014 46.109 21.238C45.959 21.462 45.529 21.967 45.398 22.117C45.267 22.267 45.136 22.285 44.912 22.173C44.688 22.061 43.965 21.824 43.108 21.06C42.441 20.465 41.991 19.731 41.86 19.506C41.729 19.281 41.846 19.16 41.959 19.048C42.06 18.948 42.183 18.786 42.295 18.655C42.407 18.524 42.444 18.431 42.519 18.281C42.594 18.131 42.557 18 42.5 17.888C42.444 17.775 41.995 16.671 41.808 16.222C41.627 15.787 41.442 15.845 41.304 15.839C41.1611 15.8332 41.018 15.8305 40.875 15.831C40.7613 15.8339 40.6493 15.8603 40.5463 15.9084C40.4432 15.9566 40.3512 16.0256 40.276 16.111C40.07 16.336 39.491 16.878 39.491 17.982C39.491 19.086 40.295 20.153 40.407 20.303C40.519 20.453 41.989 22.718 44.239 23.69C44.775 23.921 45.193 24.059 45.518 24.163C46.055 24.334 46.544 24.309 46.931 24.252C47.362 24.188 48.258 23.71 48.445 23.186C48.632 22.662 48.632 22.213 48.576 22.119C48.52 22.025 48.369 21.968 48.146 21.856Z" fill="white"/>
<path d="M69.504 26V14.8H71.584V24.24H77.44V26H69.504ZM82.828 26.112C81.8787 26.112 81.0467 25.9253 80.332 25.552C79.628 25.168 79.0787 24.6453 78.684 23.984C78.3 23.3227 78.108 22.5707 78.108 21.728C78.108 20.8747 78.2947 20.1227 78.668 19.472C79.052 18.8107 79.5747 18.2933 80.236 17.92C80.908 17.5467 81.6707 17.36 82.524 17.36C83.356 17.36 84.0973 17.5413 84.748 17.904C85.3987 18.2667 85.9107 18.7787 86.284 19.44C86.6573 20.1013 86.844 20.88 86.844 21.776C86.844 21.8613 86.8387 21.9573 86.828 22.064C86.828 22.1707 86.8227 22.272 86.812 22.368H79.692V21.04H85.756L84.972 21.456C84.9827 20.9653 84.8813 20.5333 84.668 20.16C84.4547 19.7867 84.1613 19.4933 83.788 19.28C83.4253 19.0667 83.004 18.96 82.524 18.96C82.0333 18.96 81.6013 19.0667 81.228 19.28C80.8653 19.4933 80.5773 19.792 80.364 20.176C80.1613 20.5493 80.06 20.992 80.06 21.504V21.824C80.06 22.336 80.1773 22.7893 80.412 23.184C80.6467 23.5787 80.9773 23.8827 81.404 24.096C81.8307 24.3093 82.3213 24.416 82.876 24.416C83.356 24.416 83.788 24.3413 84.172 24.192C84.556 24.0427 84.8973 23.808 85.196 23.488L86.268 24.72C85.884 25.168 85.3987 25.5147 84.812 25.76C84.236 25.9947 83.5747 26.112 82.828 26.112ZM91.9811 26.112C91.0425 26.112 90.3171 25.872 89.8051 25.392C89.2931 24.9013 89.0371 24.1813 89.0371 23.232V15.568H91.0371V23.184C91.0371 23.5893 91.1385 23.904 91.3411 24.128C91.5545 24.352 91.8478 24.464 92.2211 24.464C92.6691 24.464 93.0425 24.3467 93.3411 24.112L93.9011 25.536C93.6665 25.728 93.3785 25.872 93.0371 25.968C92.6958 26.064 92.3438 26.112 91.9811 26.112ZM87.6291 19.12V17.52H93.3251V19.12H87.6291ZM95.2584 19.232L95.1304 14.8H96.8584L96.7144 19.232H95.2584ZM101.702 26.112C100.987 26.112 100.299 26.0213 99.638 25.84C98.9873 25.648 98.47 25.4187 98.086 25.152L98.854 23.632C99.238 23.8773 99.6967 24.08 100.23 24.24C100.763 24.4 101.297 24.48 101.83 24.48C102.459 24.48 102.913 24.3947 103.19 24.224C103.478 24.0533 103.622 23.824 103.622 23.536C103.622 23.3013 103.526 23.1253 103.334 23.008C103.142 22.88 102.891 22.784 102.582 22.72C102.273 22.656 101.926 22.5973 101.542 22.544C101.169 22.4907 100.79 22.4213 100.406 22.336C100.033 22.24 99.6913 22.1067 99.382 21.936C99.0727 21.7547 98.822 21.5147 98.63 21.216C98.438 20.9173 98.342 20.5227 98.342 20.032C98.342 19.488 98.4967 19.0187 98.806 18.624C99.1153 18.2187 99.5473 17.9093 100.102 17.696C100.667 17.472 101.334 17.36 102.102 17.36C102.678 17.36 103.259 17.424 103.846 17.552C104.433 17.68 104.918 17.8613 105.302 18.096L104.534 19.616C104.129 19.3707 103.718 19.2053 103.302 19.12C102.897 19.024 102.491 18.976 102.086 18.976C101.478 18.976 101.025 19.0667 100.726 19.248C100.438 19.4293 100.294 19.6587 100.294 19.936C100.294 20.192 100.39 20.384 100.582 20.512C100.774 20.64 101.025 20.7413 101.334 20.816C101.643 20.8907 101.985 20.9547 102.358 21.008C102.742 21.0507 103.121 21.12 103.494 21.216C103.867 21.312 104.209 21.4453 104.518 21.616C104.838 21.776 105.094 22.0053 105.286 22.304C105.478 22.6027 105.574 22.992 105.574 23.472C105.574 24.0053 105.414 24.4693 105.094 24.864C104.785 25.2587 104.342 25.568 103.766 25.792C103.19 26.0053 102.502 26.112 101.702 26.112ZM117.094 26.16C116.241 26.16 115.446 26.0213 114.71 25.744C113.985 25.456 113.35 25.056 112.806 24.544C112.273 24.0213 111.857 23.408 111.558 22.704C111.26 22 111.11 21.232 111.11 20.4C111.11 19.568 111.26 18.8 111.558 18.096C111.857 17.392 112.278 16.784 112.822 16.272C113.366 15.7493 114.001 15.3493 114.726 15.072C115.452 14.784 116.246 14.64 117.11 14.64C118.028 14.64 118.865 14.8 119.622 15.12C120.38 15.4293 121.02 15.8933 121.542 16.512L120.198 17.776C119.793 17.3387 119.34 17.0133 118.838 16.8C118.337 16.576 117.793 16.464 117.206 16.464C116.62 16.464 116.081 16.56 115.59 16.752C115.11 16.944 114.689 17.216 114.326 17.568C113.974 17.92 113.697 18.336 113.494 18.816C113.302 19.296 113.206 19.824 113.206 20.4C113.206 20.976 113.302 21.504 113.494 21.984C113.697 22.464 113.974 22.88 114.326 23.232C114.689 23.584 115.11 23.856 115.59 24.048C116.081 24.24 116.62 24.336 117.206 24.336C117.793 24.336 118.337 24.2293 118.838 24.016C119.34 23.792 119.793 23.456 120.198 23.008L121.542 24.288C121.02 24.896 120.38 25.36 119.622 25.68C118.865 26 118.022 26.16 117.094 26.16ZM126.855 26.112C125.98 26.112 125.202 25.9253 124.519 25.552C123.836 25.168 123.298 24.6453 122.903 23.984C122.508 23.3227 122.311 22.5707 122.311 21.728C122.311 20.8747 122.508 20.1227 122.903 19.472C123.298 18.8107 123.836 18.2933 124.519 17.92C125.202 17.5467 125.98 17.36 126.855 17.36C127.74 17.36 128.524 17.5467 129.207 17.92C129.9 18.2933 130.439 18.8053 130.823 19.456C131.218 20.1067 131.415 20.864 131.415 21.728C131.415 22.5707 131.218 23.3227 130.823 23.984C130.439 24.6453 129.9 25.168 129.207 25.552C128.524 25.9253 127.74 26.112 126.855 26.112ZM126.855 24.4C127.346 24.4 127.783 24.2933 128.167 24.08C128.551 23.8667 128.85 23.5573 129.063 23.152C129.287 22.7467 129.399 22.272 129.399 21.728C129.399 21.1733 129.287 20.6987 129.063 20.304C128.85 19.8987 128.551 19.5893 128.167 19.376C127.783 19.1627 127.351 19.056 126.871 19.056C126.38 19.056 125.943 19.1627 125.559 19.376C125.186 19.5893 124.887 19.8987 124.663 20.304C124.439 20.6987 124.327 21.1733 124.327 21.728C124.327 22.272 124.439 22.7467 124.663 23.152C124.887 23.5573 125.186 23.8667 125.559 24.08C125.943 24.2933 126.375 24.4 126.855 24.4ZM136.944 26.112C136.122 26.112 135.381 25.9307 134.72 25.568C134.069 25.1947 133.557 24.6827 133.184 24.032C132.81 23.3813 132.624 22.6133 132.624 21.728C132.624 20.8427 132.81 20.0747 133.184 19.424C133.557 18.7733 134.069 18.2667 134.72 17.904C135.381 17.5413 136.122 17.36 136.944 17.36C137.658 17.36 138.298 17.52 138.864 17.84C139.429 18.1493 139.877 18.624 140.208 19.264C140.538 19.904 140.704 20.7253 140.704 21.728C140.704 22.72 140.544 23.5413 140.224 24.192C139.904 24.832 139.461 25.312 138.896 25.632C138.33 25.952 137.68 26.112 136.944 26.112ZM137.184 24.4C137.664 24.4 138.09 24.2933 138.464 24.08C138.848 23.8667 139.152 23.5573 139.376 23.152C139.61 22.7467 139.728 22.272 139.728 21.728C139.728 21.1733 139.61 20.6987 139.376 20.304C139.152 19.8987 138.848 19.5893 138.464 19.376C138.09 19.1627 137.664 19.056 137.184 19.056C136.704 19.056 136.272 19.1627 135.888 19.376C135.514 19.5893 135.21 19.8987 134.976 20.304C134.752 20.6987 134.64 21.1733 134.64 21.728C134.64 22.272 134.752 22.7467 134.976 23.152C135.21 23.5573 135.514 23.8667 135.888 24.08C136.272 24.2933 136.704 24.4 137.184 24.4ZM139.776 26V23.984L139.856 21.712L139.696 19.44V14.128H141.68V26H139.776ZM148.328 26.112C147.379 26.112 146.547 25.9253 145.832 25.552C145.128 25.168 144.579 24.6453 144.184 23.984C143.8 23.3227 143.608 22.5707 143.608 21.728C143.608 20.8747 143.795 20.1227 144.168 19.472C144.552 18.8107 145.075 18.2933 145.736 17.92C146.408 17.5467 147.171 17.36 148.024 17.36C148.856 17.36 149.597 17.5413 150.248 17.904C150.899 18.2667 151.411 18.7787 151.784 19.44C152.157 20.1013 152.344 20.88 152.344 21.776C152.344 21.8613 152.339 21.9573 152.328 22.064C152.328 22.1707 152.323 22.272 152.312 22.368H145.192V21.04H151.256L150.472 21.456C150.483 20.9653 150.381 20.5333 150.168 20.16C149.955 19.7867 149.661 19.4933 149.288 19.28C148.925 19.0667 148.504 18.96 148.024 18.96C147.533 18.96 147.101 19.0667 146.728 19.28C146.365 19.4933 146.077 19.792 145.864 20.176C145.661 20.5493 145.56 20.992 145.56 21.504V21.824C145.56 22.336 145.677 22.7893 145.912 23.184C146.147 23.5787 146.477 23.8827 146.904 24.096C147.331 24.3093 147.821 24.416 148.376 24.416C148.856 24.416 149.288 24.3413 149.672 24.192C150.056 24.0427 150.397 23.808 150.696 23.488L151.768 24.72C151.384 25.168 150.899 25.5147 150.312 25.76C149.736 25.9947 149.075 26.112 148.328 26.112Z" fill="white"/>
</svg>
